<mxfile host="app.diagrams.net" modified="2023-03-19T16:26:31.042Z" agent="5.0 (Macintosh; Intel Mac OS X 10_15_7) AppleWebKit/537.36 (KHTML, like Gecko) Chrome/111.0.0.0 Safari/537.36" etag="yZdwxlV073bpW5ZHIwty" version="21.0.8" type="github">
  <diagram id="prtHgNgQTEPvFCAcTncT" name="Page-1">
    <mxGraphModel dx="1172" dy="691" grid="1" gridSize="10" guides="1" tooltips="1" connect="1" arrows="1" fold="1" page="1" pageScale="1" pageWidth="827" pageHeight="1169" math="0" shadow="0">
      <root>
        <mxCell id="0" />
        <mxCell id="1" parent="0" />
        <mxCell id="AzItBcBdyjbo385Ih4Rr-12" value="" style="edgeStyle=orthogonalEdgeStyle;rounded=0;orthogonalLoop=1;jettySize=auto;html=1;exitX=0.5;exitY=1;exitDx=0;exitDy=0;" edge="1" parent="1" source="AzItBcBdyjbo385Ih4Rr-8" target="AzItBcBdyjbo385Ih4Rr-9">
          <mxGeometry relative="1" as="geometry" />
        </mxCell>
        <mxCell id="AzItBcBdyjbo385Ih4Rr-24" value="" style="edgeStyle=orthogonalEdgeStyle;rounded=0;orthogonalLoop=1;jettySize=auto;html=1;" edge="1" parent="1" source="AzItBcBdyjbo385Ih4Rr-2" target="AzItBcBdyjbo385Ih4Rr-9">
          <mxGeometry relative="1" as="geometry" />
        </mxCell>
        <mxCell id="AzItBcBdyjbo385Ih4Rr-2" value="Material Project" style="ellipse;whiteSpace=wrap;html=1;aspect=fixed;" vertex="1" parent="1">
          <mxGeometry x="290" y="100" width="80" height="80" as="geometry" />
        </mxCell>
        <mxCell id="AzItBcBdyjbo385Ih4Rr-13" value="" style="edgeStyle=orthogonalEdgeStyle;rounded=0;orthogonalLoop=1;jettySize=auto;html=1;" edge="1" parent="1" source="AzItBcBdyjbo385Ih4Rr-6" target="AzItBcBdyjbo385Ih4Rr-8">
          <mxGeometry relative="1" as="geometry" />
        </mxCell>
        <mxCell id="AzItBcBdyjbo385Ih4Rr-6" value="deamon.py" style="shape=parallelogram;perimeter=parallelogramPerimeter;whiteSpace=wrap;html=1;fixedSize=1;" vertex="1" parent="1">
          <mxGeometry x="130" y="200" width="120" height="60" as="geometry" />
        </mxCell>
        <mxCell id="AzItBcBdyjbo385Ih4Rr-10" value="" style="edgeStyle=orthogonalEdgeStyle;rounded=0;orthogonalLoop=1;jettySize=auto;html=1;" edge="1" parent="1" source="AzItBcBdyjbo385Ih4Rr-8" target="AzItBcBdyjbo385Ih4Rr-9">
          <mxGeometry relative="1" as="geometry" />
        </mxCell>
        <mxCell id="AzItBcBdyjbo385Ih4Rr-15" value="" style="edgeStyle=orthogonalEdgeStyle;rounded=0;orthogonalLoop=1;jettySize=auto;html=1;" edge="1" parent="1" source="AzItBcBdyjbo385Ih4Rr-8" target="AzItBcBdyjbo385Ih4Rr-14">
          <mxGeometry relative="1" as="geometry" />
        </mxCell>
        <mxCell id="AzItBcBdyjbo385Ih4Rr-8" value="prepare.py" style="shape=process;whiteSpace=wrap;html=1;backgroundOutline=1;" vertex="1" parent="1">
          <mxGeometry x="270" y="200" width="120" height="60" as="geometry" />
        </mxCell>
        <mxCell id="AzItBcBdyjbo385Ih4Rr-9" value="Queue.db" style="ellipse;whiteSpace=wrap;html=1;aspect=fixed;" vertex="1" parent="1">
          <mxGeometry x="290" y="290" width="80" height="80" as="geometry" />
        </mxCell>
        <mxCell id="AzItBcBdyjbo385Ih4Rr-17" value="" style="edgeStyle=orthogonalEdgeStyle;rounded=0;orthogonalLoop=1;jettySize=auto;html=1;" edge="1" parent="1" source="AzItBcBdyjbo385Ih4Rr-14" target="AzItBcBdyjbo385Ih4Rr-16">
          <mxGeometry relative="1" as="geometry" />
        </mxCell>
        <mxCell id="AzItBcBdyjbo385Ih4Rr-14" value="Opt Lattice Parameter" style="rounded=0;whiteSpace=wrap;html=1;" vertex="1" parent="1">
          <mxGeometry x="420" y="200" width="140" height="60" as="geometry" />
        </mxCell>
        <mxCell id="AzItBcBdyjbo385Ih4Rr-19" value="" style="edgeStyle=orthogonalEdgeStyle;rounded=0;orthogonalLoop=1;jettySize=auto;html=1;" edge="1" parent="1" source="AzItBcBdyjbo385Ih4Rr-16" target="AzItBcBdyjbo385Ih4Rr-18">
          <mxGeometry relative="1" as="geometry" />
        </mxCell>
        <mxCell id="AzItBcBdyjbo385Ih4Rr-16" value="Opt Atomic Configureation" style="whiteSpace=wrap;html=1;rounded=0;" vertex="1" parent="1">
          <mxGeometry x="590" y="200" width="120" height="60" as="geometry" />
        </mxCell>
        <mxCell id="AzItBcBdyjbo385Ih4Rr-23" value="" style="edgeStyle=orthogonalEdgeStyle;rounded=0;orthogonalLoop=1;jettySize=auto;html=1;" edge="1" parent="1" source="AzItBcBdyjbo385Ih4Rr-18" target="AzItBcBdyjbo385Ih4Rr-22">
          <mxGeometry relative="1" as="geometry" />
        </mxCell>
        <mxCell id="AzItBcBdyjbo385Ih4Rr-18" value="SCF Calc with Fine K-points" style="whiteSpace=wrap;html=1;rounded=0;" vertex="1" parent="1">
          <mxGeometry x="740" y="200" width="120" height="60" as="geometry" />
        </mxCell>
        <mxCell id="AzItBcBdyjbo385Ih4Rr-20" value="" style="endArrow=classic;html=1;rounded=0;entryX=1;entryY=0.5;entryDx=0;entryDy=0;exitX=0.5;exitY=1;exitDx=0;exitDy=0;" edge="1" parent="1" source="AzItBcBdyjbo385Ih4Rr-18" target="AzItBcBdyjbo385Ih4Rr-9">
          <mxGeometry width="50" height="50" relative="1" as="geometry">
            <mxPoint x="800" y="330" as="sourcePoint" />
            <mxPoint x="490" y="330" as="targetPoint" />
            <Array as="points">
              <mxPoint x="800" y="330" />
              <mxPoint x="490" y="330" />
            </Array>
          </mxGeometry>
        </mxCell>
        <mxCell id="AzItBcBdyjbo385Ih4Rr-21" value="Update Status" style="text;html=1;strokeColor=none;fillColor=none;align=center;verticalAlign=middle;whiteSpace=wrap;rounded=0;" vertex="1" parent="1">
          <mxGeometry x="520" y="290" width="100" height="30" as="geometry" />
        </mxCell>
        <mxCell id="AzItBcBdyjbo385Ih4Rr-22" value="Gap.db" style="ellipse;whiteSpace=wrap;html=1;rounded=0;" vertex="1" parent="1">
          <mxGeometry x="890" y="190" width="80" height="80" as="geometry" />
        </mxCell>
      </root>
    </mxGraphModel>
  </diagram>
</mxfile>
